<svg xmlns="http://www.w3.org/2000/svg" viewBox="170 80 685 1040"><path d="m532 1120-14.5-62c-33.333-1.67-57.167-7.5-71.5-17.5s-26.5-28.33-36.5-55L375 894l260.5-39q44.5-7 78-18t56-27.5 33.75-39.5 11.25-53.5q0-23.5-6.5-59t-18.5-76l-93-313.5q-15-51-43.75-84.25t-72.25-49.5-104-16.25q-46 0-86.25 11t-75.75 32.5T247 215l-7-23.5q25-17 53.5-26.5t50.5-9.5q54.5 0 91.5 30.25T488 274l97.5 360.5q11.5 42.5 11.5 85 0 58.5-21.75 101.5t-61.75 66.5-95 23.5q-41 0-68.25-13.75t-46-47.5T270 755.5l-85.5-332q-15-59.5-15-100 0-51 24-95t66.25-77.5 97.75-52.25T476.5 80q102.5 0 167 44.75T734 257.5l93 313q9 29.5 18.25 72.25t9.25 73.75q0 56-29.25 93t-84.25 53l16.5-23.5 18.5 63.5q4 13 6.25 26t2.25 25.5c0 51.33-28.833 86-86.5 104l12.5 62ZM418 873.5q64.5 0 102-41.75t37.5-113.25q0-17-2.75-36t-8.25-40L454 287q-12.5-47-40.75-70.75T341 192.5q-37 0-67.25 17.25t-48 47T208 324.5q0 20 3.75 41.75T221 410l87.5 336.5q13.5 52 27 79.5t32.75 37.5 49.75 10m72.5 133c9 0 16.583-3.58 22.75-10.75q9.25-10.75 9.25-26.25 0-16-9.25-26.25T490.5 933t-23 10.25-9.5 26.25 9.25 26.5 23.25 10.5M303 818l-10-40.5 58.5-37 10.5 40Zm-32-117-10-40.5 60-38 10.5 41Zm-31.5-117-10-40.5 61-38.5 10.5 40.5ZM208 467.5l-11-40 63-40.5 10.5 41ZM452.5 735 442 694.5 554 622l10.5 40ZM748 746q-5 34.5-27 63.5t-57.25 48.25-80.25 24.75l-24-16Q597 862 628 845t51.75-43 27.75-56ZM422 616.5l-10.5-40 111-72 11 40ZM667 660l-93.5-1-10.5-40 93.5 1ZM391.5 499 381 459l110.5-72 10.5 40.5Zm244 43.5-92-1-10.5-40 92 1Zm-275-161L350 341l110.5-71.5 10.5 40Zm472 278-72-1L750 619l72 1Zm-229-235-90.5-1-11-39.5 91 1Zm198.5 117-74-1-10.5-39.5 74 1ZM571.5 307l-90.5-1-11-39.5 91 1ZM772 425.5l-76-1-11-40 76 1ZM740 307l-76.5-1-11-40 76.5 1Zm-179-91.5q-10-27-31.5-47.5t-50.75-32.5-62.75-13l17-18q40.5 0 74.5 13.25T566 156t36 59.5Z"/></svg>