<svg xmlns="http://www.w3.org/2000/svg" viewBox="0 0 108 108" width="512" height="512">
  <rect width="108" height="108" fill="#D27308"/>
  <g transform="translate(54, 56) scale(0.075) translate(-512, -600)" fill="white">
    <path d="M123.5 622.5q-36.5 0-60.25-24.25T39.5 532q0-99.5 35.25-182.25T174 206.5 324 113t188-33 188 33 150 93.5 99.25 143.25T984.5 532q0 42-23.5 66.25t-60.5 24.25q-39.5 0-62.25-23.5T810 530q-9.5-85-50-144.25t-104.25-90T512 265q-79.5 0-143.5 30.75t-104.25 90T214 530q-5 45.5-28 69t-62.5 23.5m13.5 377q-39.5 0-59.25-26.5T58 910q0-27.5 12.5-51t38.5-28.5q1 15 3.75 39.25t7 50.5T128.5 968t8.5 31.5M304 1104c-20-22-37.75-51.83-53.25-89.5q-23.25-56.5-36.5-123T201 762q0-27 3-47t9.5-51l39.5-4q-6.5 28.5-9.5 52t-3 50q0 59.5 12.25 121t34.5 118.25q22.25 56.745 52.75 101.25ZM106.5 852.5q-5.5-50-8.5-94.5t-4-84.5-1-76h39.5q0 30 .75 63.5t2.5 65.75T139.5 786ZM314 1083c6.333 0 12.417-.33 18.25-1s12.083-1.5 18.75-2.5l49-8c5-6 9-16.92 12-32.75s4.5-34.42 4.5-55.75q0-64-11.75-125T372 747.25t-49.5-80.75l-52.5 9q-38.5 6.5-69 33.5t-47.75 68.25T136 868q0 64.5 22.25 112.75c14.833 32.17 35.667 57.25 62.5 75.25q40.25 27 93.25 27m9.5 37c-46.667 0-86.917-10.08-120.75-30.25S143 1040.67 125 1003q-27-56.5-27-135 0-59.5 20.25-108t56.5-80.25T259 639l45.5-8.5q27-5 48.5 13.75T391 697t28.5 75.75T439 856t11.25 75.25T454 983c0 27.33-1.75 50-5.25 68s-9 31.83-16.5 41.5S414.667 1108 402 1110l-44.5 7q-9.5 1.5-17.5 2.25t-16.5.75m84-35q-12.5 0-28.25-27.75t-30.5-75T323 877q-6.5-37-10-71.75t-3.5-63.75q0-26 2.75-46.75t8.25-33 13-12.25q12.5 0 28.5 28t31.25 75T418.5 857q5.5 29.5 9.25 68t3.75 73q0 40.5-6.25 63.75T407.5 1085m209 0q-11.5 0-17.75-23.25T592.5 998q0-34.5 4-73t9-68Q616 799.5 631 752.5t31-75 28.5-28q8 0 13.25 12.25t8 33 2.75 46.75q0 29-3.25 63.75T701 877q-10.5 58-25.5 105.25t-30.5 75-28.5 27.75m103.5 19-36-1.5q30.5-44.505 52.75-101.25Q759 944.5 771.25 883t12.25-121q0-26.5-2.75-50T771 660l39.5 4q7 31 9.75 51t2.75 47q0 63-13.25 129.5t-36.25 123c-15.333 37.67-33.167 67.5-53.5 89.5m-10-21q53.5 0 93.5-27c26.667-18 47.417-43.08 62.25-75.25Q888 932.5 888 868q0-49.5-17.25-90.75T823.25 709 754 675.5l-52.5-9q-28 31-49.25 80.75t-33 110.75-11.75 125c0 21.33 1.5 39.92 4.5 55.75s7 26.75 12 32.75l49 8c6.667 1 12.917 1.83 18.75 2.5s11.917 1 18.25 1m-9.5 37q-8.5 0-16.25-.75T666.5 1117l-44.5-7c-12.333-2-22.333-7.83-30-17.5s-13.25-23.5-16.75-41.5-5.25-40.67-5.25-68q0-18 3.75-51.75T585 856t19.5-83.25T633 697t38-52.75 48.5-13.75L765 639q48.5 9 84.5 40.75T905.75 760 926 868q0 78.5-27 135c-18 37.67-43.833 66.58-77.5 86.75s-74 30.25-121 30.25M887 999.5q4-10 8.5-31.5t8.75-47.75 7.25-50.5 3.5-39.25q26 5 38.5 28.5t12.5 51q0 36.5-19.5 63T887 999.5m-762.5-415q25 0 36.75-14.5t15.25-46q8-70 36.75-125.5t73.5-94.25 102.25-59T512 225t123 20.25 102.25 59 73.5 94.25T847.5 524q4 31.5 15.5 46t36.5 14.5q24 0 34.5-12.75t10.5-40.25q0-89.5-31.5-164.75t-89-130.5-136.75-85.75T512 120t-175.25 30.5T200 236.25t-89 130.5T79.5 531.5q0 27.5 10.5 40.25t34.5 12.75m793 268-33-66.5q2.5-27 4-59.25t2.25-65.75.75-63.5H931q0 36-1 76t-4 84.5-8.5 94.5"/>
  </g>
</svg>